<svg data-v-4becafc6="" width="17" height="13"><path data-v-4becafc6="" d="M9.17 5.939a3.29 3.29 0 0 0 .573-1.88c0-.193-.02-.4-.058-.623L7.655 7.16a3.206 3.206 0 0 0 1.515-1.22zM9.467.81a.188.188 0 0 0 .008-.066.228.228 0 0 0-.116-.2 4.045 4.045 0 0 0-.142-.086C9.137.412 9.061.366 8.99.321A4.896 4.896 0 0 0 8.525.07a.385.385 0 0 0-.13-.044.226.226 0 0 0-.203.118L7.8.863A6.942 6.942 0 0 0 6.495.737c-1.3 0-2.498.336-3.595 1.008C1.803 2.418.885 3.335.145 4.496A.94.94 0 0 0 0 5.008a.94.94 0 0 0 .145.512c.425.677.93 1.283 1.511 1.817a7.489 7.489 0 0 0 1.91 1.283c-.212.37-.318.586-.318.645 0 .089.038.158.116.208.59.346.913.519.971.519.087 0 .155-.04.203-.12l.355-.66c.512-.933 1.276-2.335 2.29-4.204A2348.82 2348.82 0 0 1 9.468.811zM4.023 7.79C2.767 7.21 1.735 6.283.928 5.007c.735-1.166 1.655-2.04 2.762-2.617a3.298 3.298 0 0 0-.442 1.668c0 .53.118 1.03.355 1.505.237.475.565.868.986 1.18l-.566 1.045zm2.719-5.377a.332.332 0 0 1-.247.104c-.415 0-.77.15-1.065.452a1.503 1.503 0 0 0-.443 1.09.348.348 0 0 1-.101.252.332.332 0 0 1-.247.104.332.332 0 0 1-.246-.104.347.347 0 0 1-.102-.252c0-.618.217-1.148.65-1.59.432-.443.95-.664 1.554-.664.097 0 .179.034.247.103.067.07.101.154.101.253a.347.347 0 0 1-.101.252z"></path><path data-v-4becafc6="" d="M12.846 4.496a7.335 7.335 0 0 0-1.048-1.364 8.634 8.634 0 0 0-1.323-1.135l-.457.831a7.521 7.521 0 0 1 2.045 2.18 7.565 7.565 0 0 1-2.186 2.277A5.929 5.929 0 0 1 7.032 8.3l-.537.979a6.797 6.797 0 0 0 3.041-.705 7.836 7.836 0 0 0 2.52-1.98c.338-.4.601-.759.79-1.075.096-.168.145-.339.145-.512s-.049-.343-.145-.512z"></path></svg>