<svg data-v-4becafc6="" width="17" height="11"><path data-v-4becafc6="" d="M12.855 3.52c-.677-1.06-1.588-1.911-2.731-2.555a7.28 7.28 0 0 0-7.248 0C1.733 1.61.822 2.461.145 3.521A.931.931 0 0 0 0 4a.93.93 0 0 0 .145.478c.677 1.06 1.588 1.912 2.731 2.556A7.28 7.28 0 0 0 6.5 8a7.3 7.3 0 0 0 3.624-.962 7.55 7.55 0 0 0 2.731-2.559A.93.93 0 0 0 13 4a.93.93 0 0 0-.145-.48zM4.944 1.623A2.17 2.17 0 0 1 6.5 1c.097 0 .179.032.247.097a.315.315 0 0 1 .101.236.315.315 0 0 1-.101.236.343.343 0 0 1-.247.098c-.416 0-.771.14-1.066.423a1.362 1.362 0 0 0-.443 1.021.315.315 0 0 1-.101.236.343.343 0 0 1-.247.098.344.344 0 0 1-.247-.098.315.315 0 0 1-.101-.236c0-.578.216-1.075.649-1.49zm4.708 4.646c-.97.562-2.02.843-3.152.843a6.173 6.173 0 0 1-3.152-.843A7.347 7.347 0 0 1 .928 4c.736-1.093 1.657-1.91 2.765-2.451A2.937 2.937 0 0 0 3.25 3.11c0 .857.318 1.59.954 2.198.636.609 1.401.913 2.296.913.895 0 1.66-.304 2.296-.913.636-.609.954-1.341.954-2.198 0-.56-.148-1.081-.443-1.562 1.108.541 2.03 1.359 2.764 2.451a7.345 7.345 0 0 1-2.419 2.268z"></path></svg>