
<svg xmlns="http://www.w3.org/2000/svg" width="48" height="48" viewBox="0 0 48 48">
    <g fill="none" fill-rule="evenodd">
        <g fill="#C3CAD7" fill-rule="nonzero">
            <g transform="translate(-250.000000, -816.000000) translate(250.000000, 816.000000)">
                <circle cx="23.976" cy="27.245" r="1"/>
                <path d="M30.715 22.348v-3.37c0-3.722-3.017-6.739-6.739-6.739s-6.74 3.017-6.74 6.74v3.369c-.464 0-.842.377-.842.842v8.11c0 1.86 1.509 3.369 3.37 3.369h8.424c1.86 0 3.37-1.509 3.37-3.37V23.19c0-.465-.378-.842-.843-.842zm-5.897 7.272v1.837c0 .465-.377.842-.842.842-.465 0-.842-.377-.842-.842V29.62c-1.16-.41-1.857-1.597-1.649-2.81.208-1.213 1.26-2.1 2.491-2.1 1.23 0 2.283.887 2.49 2.1.209 1.213-.487 2.4-1.648 2.81zm-5.896-8.115v-2.527c0-2.791 2.263-5.054 5.054-5.054 2.792 0 5.055 2.263 5.055 5.054v2.527H18.92zM22.143 3.594c.093.096.135.23.114.363l-.223 1.372c-.026.159.04.319.173.412.131.093.305.102.446.024l1.12-.619c.126-.07.28-.07.407 0l1.12.62c.14.077.314.068.446-.025.131-.093.199-.253.173-.412l-.224-1.372c-.021-.132.02-.267.114-.363l.964-.988c.11-.113.148-.278.098-.427-.05-.15-.18-.259-.336-.283l-1.295-.198c-.14-.021-.258-.11-.318-.237L24.358.258c-.07-.149-.218-.243-.382-.243s-.312.094-.382.243L23.03 1.46c-.06.127-.179.216-.318.237l-1.295.198c-.156.024-.285.133-.335.283-.05.15-.013.314.097.427l.964.988zM26.535 44.016l-1.295-.198c-.14-.021-.258-.11-.318-.238l-.564-1.203c-.07-.148-.218-.243-.382-.243s-.312.095-.382.243l-.564 1.203c-.06.127-.179.217-.318.238l-1.295.198c-.156.024-.285.133-.335.282-.05.15-.013.315.097.428l.964.988c.093.096.135.23.114.362l-.223 1.373c-.026.159.04.319.173.411.131.093.305.103.446.025l1.12-.62c.126-.07.28-.07.407 0l1.12.62c.14.078.314.068.446-.025.131-.092.199-.252.173-.411l-.224-1.373c-.021-.132.02-.266.114-.362l.964-.988c.11-.113.148-.278.098-.428-.05-.15-.18-.258-.336-.282zM11.884 6.442c.094.096.136.23.115.363l-.224 1.372c-.026.16.041.32.173.413.132.092.306.102.447.023l1.12-.619c.126-.07.28-.07.407 0l1.12.62c.14.077.314.068.446-.025.131-.093.199-.253.173-.412l-.224-1.372c-.021-.133.021-.267.115-.363l.964-.988c.11-.113.148-.278.098-.427-.05-.15-.18-.259-.336-.283l-1.295-.198c-.14-.02-.259-.11-.319-.237L14.1 3.106c-.07-.146-.218-.238-.38-.238-.16 0-.308.092-.378.238l-.57 1.203c-.06.127-.178.216-.317.237l-1.296.198c-.156.024-.285.133-.336.283-.05.15-.012.314.098.427l.963.988zM37.337 41.22l-1.295-.197c-.14-.021-.259-.11-.319-.238l-.564-1.202c-.07-.148-.218-.242-.381-.242-.164 0-.312.094-.382.242l-.564 1.202c-.06.128-.179.217-.318.238l-1.295.198c-.156.024-.286.132-.336.282-.05.15-.013.315.097.428l.964.988c.094.096.136.23.115.362l-.224 1.373c-.026.159.04.32.173.412.132.093.305.102.447.024l1.12-.62c.126-.07.28-.07.407 0l1.12.62c.14.078.314.068.446-.025.131-.092.199-.252.173-.411l-.224-1.373c-.022-.132.02-.266.114-.362l.964-.988c.11-.113.148-.278.098-.428-.05-.15-.18-.258-.336-.282zM4.24 13.717c.093.095.135.23.113.362L4.13 15.45c-.026.16.042.32.173.412.132.093.305.102.446.025l1.12-.62c.127-.07.28-.07.408 0l1.12.62c.14.077.314.068.445-.025.132-.093.2-.253.173-.412l-.223-1.372c-.022-.132.02-.267.114-.362l.964-.989c.11-.113.148-.278.098-.427-.05-.15-.18-.259-.336-.283l-1.296-.198c-.138-.02-.257-.11-.317-.237l-.564-1.203c-.07-.148-.219-.243-.382-.243-.164 0-.312.095-.382.243l-.564 1.203c-.06.127-.179.216-.318.237l-1.295.198c-.156.024-.285.133-.336.283-.05.15-.012.315.098.427l.964.989zM45.108 33.078l-1.295-.198c-.14-.021-.258-.11-.318-.237l-.565-1.203c-.07-.148-.218-.242-.381-.242s-.312.094-.381.242l-.565 1.203c-.06.127-.179.216-.318.237l-1.296.198c-.156.024-.285.133-.335.283-.05.15-.012.314.098.427l.964.989c.094.095.136.23.115.362l-.224 1.372c-.026.16.041.319.173.412.132.093.305.102.446.024l1.12-.619c.126-.07.28-.07.407 0l1.12.62c.14.078.314.068.447-.024.132-.093.199-.254.173-.413l-.224-1.372c-.022-.132.02-.267.113-.362l.965-.989c.11-.113.148-.278.097-.427-.05-.15-.18-.259-.336-.283zM4.686 26.8c.131-.092.199-.252.173-.411l-.223-1.373c-.022-.131.02-.266.113-.362l.964-.988c.11-.113.148-.278.098-.427-.05-.15-.18-.259-.335-.283l-1.296-.198c-.139-.021-.258-.11-.318-.238l-.564-1.202c-.07-.149-.218-.243-.382-.243-.163 0-.312.094-.381.243L1.97 22.52c-.06.128-.178.217-.317.238l-1.296.198c-.156.024-.285.133-.335.283-.05.15-.013.314.097.427l.964.988c.093.096.136.23.114.363l-.223 1.372c-.026.159.041.319.173.412.132.093.305.102.446.024l1.12-.619c.126-.07.28-.07.407 0l1.12.62c.14.077.314.067.446-.025zM47.833 23.666c.11-.113.147-.278.097-.427-.05-.15-.18-.259-.335-.283l-1.296-.198c-.138-.021-.257-.11-.317-.238l-.564-1.202c-.07-.149-.219-.243-.382-.243-.164 0-.312.094-.382.243l-.564 1.202c-.06.128-.179.217-.318.238l-1.295.198c-.156.024-.285.133-.335.283-.05.15-.013.314.097.427l.964.988c.093.096.135.23.114.362l-.223 1.373c-.026.159.04.319.173.412.131.092.304.102.446.024l1.12-.619c.126-.07.28-.07.407 0l1.12.62c.14.077.314.067.446-.025.131-.093.199-.253.173-.412l-.224-1.373c-.021-.131.02-.266.114-.362l.964-.988zM9.003 32.91l-1.295-.198c-.14-.023-.26-.115-.319-.245l-.564-1.202c-.07-.147-.218-.242-.381-.242s-.312.095-.381.242l-.565 1.202c-.06.128-.178.217-.317.238l-1.296.2c-.156.024-.286.133-.336.283-.05.15-.012.315.098.428l.964.988c.093.096.136.23.114.362l-.224 1.376c-.026.16.041.32.173.413.132.093.306.102.447.024l1.12-.62c.126-.07.28-.07.407 0l1.12.62c.14.078.314.068.446-.025.132-.092.199-.252.173-.412l-.224-1.372c-.022-.132.02-.266.114-.362l.964-.988c.11-.113.148-.278.098-.428-.05-.15-.18-.258-.336-.282zM41.088 13.544c.093.096.135.23.113.362l-.223 1.377c-.026.159.041.319.173.411.132.093.305.103.446.025l1.12-.62c.127-.07.28-.07.408 0l1.12.62c.14.08.316.072.449-.021s.2-.255.173-.415l-.223-1.373c-.021-.132.02-.266.114-.362l.965-.988c.11-.113.147-.278.097-.428-.05-.15-.18-.258-.336-.282l-1.295-.198c-.14-.021-.258-.11-.318-.238l-.564-1.202c-.07-.148-.218-.243-.382-.243-.163 0-.312.095-.382.243l-.564 1.202c-.06.128-.179.217-.317.238l-1.296.198c-.156.024-.285.133-.335.282-.05.15-.013.315.097.428l.96.984zM15.904 40.181l-1.295-.198c-.14-.02-.258-.11-.318-.237l-.564-1.203c-.07-.148-.218-.243-.382-.243s-.312.095-.382.243l-.564 1.203c-.06.127-.179.216-.318.237l-1.295.198c-.156.024-.285.133-.335.283-.05.15-.013.314.097.427l.966.987c.093.096.135.23.113.362l-.223 1.372c-.026.16.042.32.173.412.132.093.305.103.446.025l1.12-.62c.127-.07.28-.07.408 0l1.12.62c.14.078.314.068.445-.025.132-.093.2-.252.173-.412l-.223-1.373c-.022-.132.02-.266.114-.362l.962-.986c.11-.113.148-.278.098-.427-.05-.15-.18-.259-.336-.283zM32.687 5.764l-.223 1.372c-.026.159.041.319.173.412.132.092.305.102.446.024l1.12-.619c.127-.07.28-.07.407 0l1.12.62c.141.077.314.067.446-.025.132-.093.199-.253.173-.412l-.223-1.372c-.022-.132.02-.267.114-.363l.962-.985c.11-.113.147-.278.097-.428-.05-.15-.179-.258-.335-.282l-1.295-.198c-.14-.022-.258-.11-.318-.238l-.564-1.203c-.07-.148-.218-.243-.382-.243s-.312.095-.382.243L33.46 3.27c-.06.127-.179.216-.318.238l-1.295.198c-.156.024-.285.133-.335.282-.05.15-.013.315.097.428l.966.985c.093.096.135.23.113.363z"/>
            </g>
        </g>
    </g>
</svg>
