<svg xmlns="http://www.w3.org/2000/svg" xmlns:xlink="http://www.w3.org/1999/xlink" width="158" height="56" viewBox="0 0 158 56">
    <defs>
        <path id="a" d="M11.167 53.584c-14.874-8.442-14.828-43.368-.23-51.57 14.597-8.201 44.88 10.277 44.88 25.981 0 15.705-29.775 34.031-44.65 25.589z"/>
        <linearGradient id="b" x1="50%" x2="50%" y1="100%" y2="0%">
            <stop offset="0%" stop-color="#FFA246"/>
            <stop offset="100%" stop-color="#E14A53"/>
        </linearGradient>
    </defs>
    <g fill="none" fill-rule="evenodd">
        <g>
            <mask id="c" fill="#fff">
                <use xlink:href="#a"/>
            </mask>
            <use fill="#FA994D" fill-rule="nonzero" xlink:href="#a"/>
            <path fill="url(#b)" fill-rule="nonzero" d="M11.167 54.513c-14.874-8.443-14.828-43.369-.23-51.57 14.597-8.201 44.88 10.277 44.88 25.981 0 15.704-29.775 34.03-44.65 25.589z" mask="url(#c)"/>
        </g>
        <path fill="#DB466C" fill-rule="nonzero" d="M.002 27.143c.105 10.69 3.811 21.338 11.165 25.512 14.728 8.36 44.063-9.524 44.641-25.122.006.154.009.309.009.462 0 15.705-29.775 34.031-44.65 25.589C3.601 49.289-.105 38.14.002 27.143z"/>
        <path fill="#FFF" d="M10.49 21.758c3.408 0 5.641 2.73 5.641 6.006 0 .193-.011.375-.022.557-.035.33-.24.478-.547.478H7.069c.374 1.864 1.764 2.82 3.501 2.82 1.083 0 1.983-.454 2.473-1.091.182-.193.353-.307.627-.307l1.458-.012c.377 0 .582.228.434.546-.832 1.855-2.701 2.97-5.026 2.97-3.635 0-6.017-2.571-6.017-5.984 0-3.367 2.404-5.983 5.971-5.983zm-3.43 5.016h6.595C13.332 24.837 11.946 24 10.48 24c-1.838 0-3.085 1.073-3.42 2.775zm21.911-4.72c.33 0 .513.182.513.511v10.352c0 .33-.182.512-.513.512h-1.435c-.331 0-.513-.182-.513-.512v-1.121c-.863 1.194-2.203 1.928-4 1.928-3.1 0-5.664-2.605-5.664-5.983 0-3.378 2.564-5.983 5.664-5.983 1.797 0 3.137.734 4 1.928v-1.12c0-.33.182-.512.513-.512h1.435zm-5.55 9.327c2.052 0 3.602-1.524 3.602-3.64s-1.55-3.64-3.601-3.64c-2.052 0-3.602 1.524-3.602 3.64s1.55 3.64 3.602 3.64zm10.8-6.131c0 2.286 6.326.637 6.326 4.982 0 2.241-1.96 3.492-4.48 3.492-2.335 0-4.193-1.114-4.443-3.276-.035-.352.17-.534.5-.534h1.414c.308 0 .433.17.547.455.194.819.991 1.149 1.983 1.149 1.197 0 2.017-.421 2.017-1.286 0-2.263-6.325-.648-6.325-4.982 0-2.218 1.96-3.492 4.308-3.492 2.131 0 3.966 1.115 4.216 3.276.035.352-.17.534-.501.534H38.37c-.308 0-.433-.17-.547-.466-.182-.808-.946-1.137-1.755-1.137-1.026 0-1.846.42-1.846 1.285zm14.926-2.776c.092-.284.297-.42.582-.42h1.56c.365 0 .548.216.422.58l-5.14 14.935c-.09.284-.307.41-.592.41h-1.561c-.365 0-.547-.217-.422-.58l1.413-4.107-4.205-10.647c-.136-.353.023-.591.4-.591h1.55c.284 0 .478.125.58.398l2.906 7.439 2.507-7.417z"/>
        <path fill="#363E4E" d="M70.088 22.054c.33 0 .512.181.512.511v10.351c0 3.64-2.871 5.358-5.789 5.358-2.7 0-5.253-1.468-5.584-3.913-.022-.353.183-.535.513-.535h1.447c.308 0 .456.16.547.455.274.899 1.345 1.763 3.077 1.763 2.143 0 3.374-1.16 3.374-3.128v-1.394c-.861 1.214-2.217 1.975-4.046 1.975-3.1 0-5.664-2.605-5.664-5.87s2.564-5.87 5.664-5.87c1.829 0 3.185.761 4.046 1.975v-1.167c0-.33.182-.511.512-.511h1.39zm-5.527 9.145c2.074 0 3.624-1.525 3.624-3.572 0-2.048-1.55-3.572-3.624-3.572s-3.624 1.524-3.624 3.572c0 2.047 1.55 3.572 3.624 3.572zm14.002-9.441c3.408 0 5.641 2.73 5.641 6.006 0 .193-.011.375-.023.557-.034.33-.239.478-.547.478h-8.492c.374 1.864 1.764 2.82 3.5 2.82 1.084 0 1.984-.454 2.474-1.091.182-.193.353-.307.627-.307l1.458-.012c.376 0 .581.228.433.546-.832 1.855-2.7 2.97-5.025 2.97-3.636 0-6.017-2.571-6.017-5.984 0-3.367 2.404-5.983 5.971-5.983zm-3.43 5.016h6.595C81.405 24.837 80.019 24 78.552 24c-1.838 0-3.085 1.073-3.42 2.775zm16.623-5.016c2.12 0 3.761 1.615 3.761 4.345v6.814c0 .33-.182.512-.513.512h-1.436c-.33 0-.512-.182-.512-.512V26.25c0-1.467-.89-2.195-2.086-2.195-1.288 0-2.45.762-2.45 2.843v6.018c0 .33-.182.512-.513.512h-1.436c-.33 0-.513-.182-.513-.512V22.565c0-.33.183-.511.513-.511h1.436c.33 0 .513.182.513.511v.776c.73-1.107 1.843-1.583 3.236-1.583zm11.439 0c3.407 0 5.64 2.73 5.64 6.006 0 .193-.01.375-.022.557-.034.33-.24.478-.547.478h-8.493c.375 1.864 1.765 2.82 3.502 2.82 1.082 0 1.983-.454 2.473-1.091.182-.193.353-.307.626-.307l1.459-.012c.376 0 .581.228.433.546-.832 1.855-2.7 2.97-5.026 2.97-3.635 0-6.017-2.571-6.017-5.984 0-3.367 2.405-5.983 5.972-5.983zm-3.431 5.016h6.596c-.323-1.937-1.71-2.775-3.176-2.775-1.838 0-3.085 1.073-3.42 2.775zm16.146-4.891c.341-.046.524.16.524.49v1.614c0 .319-.137.5-.376.5-1.493.035-2.906.854-2.906 3.095v5.335c0 .33-.183.512-.513.512h-1.436c-.33 0-.513-.182-.513-.512V22.565c0-.33.182-.511.513-.511h1.436c.33 0 .513.182.513.511v1.194c.602-1.202 1.599-1.752 2.758-1.876zm13.102.682v10.352c0 .33-.183.512-.513.512h-1.436c-.33 0-.513-.182-.513-.512v-1.121c-.862 1.194-2.203 1.928-4 1.928-3.1 0-5.663-2.605-5.663-5.983 0-3.378 2.564-5.983 5.664-5.983 1.796 0 3.137.734 4 1.928v-1.12c0-.33.182-.512.512-.512h1.436c.33 0 .513.182.513.511zm-6.063 8.816c2.051 0 3.601-1.524 3.601-3.64s-1.55-3.64-3.6-3.64c-2.052 0-3.602 1.524-3.602 3.64s1.55 3.64 3.601 3.64zm13.809-9.327c.33 0 .513.182.513.511v1.343c0 .33-.183.512-.513.512h-1.584v8.497c0 .33-.182.512-.513.512h-1.436c-.33 0-.513-.182-.513-.512V24.42h-1.595c-.33 0-.513-.182-.513-.512v-1.343c0-.33.182-.511.513-.511h1.595v-3.129c0-.33.183-.511.513-.511h1.436c.33 0 .513.182.513.511v3.129h1.584zm7.153 11.67c-3.339 0-6.017-2.605-6.017-5.983 0-3.378 2.678-5.983 6.017-5.983 3.34 0 6.017 2.605 6.017 5.983 0 3.378-2.678 5.983-6.017 5.983zm0-2.388c2.006 0 3.556-1.525 3.556-3.595 0-2.07-1.55-3.594-3.556-3.594-2.005 0-3.555 1.524-3.555 3.594s1.55 3.595 3.555 3.595zm13.217-9.453c.341-.046.524.16.524.49v1.614c0 .319-.137.5-.377.5-1.492.035-2.906.854-2.906 3.095v5.335c0 .33-.182.512-.512.512h-1.436c-.33 0-.513-.182-.513-.512V22.565c0-.33.182-.511.513-.511h1.436c.33 0 .512.182.512.511v1.194c.603-1.202 1.6-1.752 2.759-1.876z"/>
    </g>
</svg>
