
<svg xmlns="http://www.w3.org/2000/svg" xmlns:xlink="http://www.w3.org/1999/xlink" width="56" height="56" viewBox="0 0 56 56">
    <defs>
        <path id="a" d="M11.147 53.584c-14.847-8.442-14.801-43.368-.23-51.57 14.57-8.201 44.797 10.277 44.797 25.981 0 15.705-29.72 34.031-44.567 25.589z"/>
        <linearGradient id="b" x1="50%" x2="50%" y1="100%" y2="0%">
            <stop offset="0%" stop-color="#FFA246"/>
            <stop offset="100%" stop-color="#E14A53"/>
        </linearGradient>
    </defs>
    <g fill="none" fill-rule="evenodd">
        <path fill="#FA994D" fill-rule="nonzero" d="M11.147 53.584c-14.847-8.442-14.801-43.368-.23-51.57 14.57-8.201 44.797 10.277 44.797 25.981 0 15.705-29.72 34.031-44.567 25.589z"/>
        <g>
            <mask id="c" fill="#fff">
                <use xlink:href="#a"/>
            </mask>
            <path fill="url(#b)" fill-rule="nonzero" d="M11.147 54.513C-3.7 46.07-3.654 11.144 10.917 2.943c14.57-8.201 44.797 10.277 44.797 25.981 0 15.704-29.72 34.03-44.567 25.589z" mask="url(#c)"/>
        </g>
        <path fill="#DB466C" fill-rule="nonzero" d="M.002 27.143c.104 10.69 3.804 21.338 11.145 25.512 14.7 8.36 43.981-9.524 44.559-25.122.005.154.008.309.008.462 0 15.705-29.72 34.031-44.567 25.589C3.594 49.289-.105 38.14.002 27.143z"/>
        <g fill="#FFF" fill-rule="nonzero">
            <path d="M17.236 19.941c4.289 0 7.1 3.458 7.1 7.608 0 .245-.014.475-.029.706-.043.418-.301.605-.688.605H12.93c.472 2.362 2.22 3.573 4.407 3.573 1.362 0 2.495-.576 3.112-1.383.23-.245.445-.389.789-.389l1.836-.014c.473 0 .731.288.545.691-1.047 2.349-3.4 3.76-6.325 3.76-4.575 0-7.573-3.255-7.573-7.578 0-4.265 3.026-7.579 7.515-7.579zm-4.317 6.354h8.3c-.406-2.453-2.15-3.515-3.997-3.515-2.313 0-3.882 1.36-4.303 3.515zM40.518 20.316c.416 0 .645.23.645.648v13.111c0 4.611-3.614 6.787-7.286 6.787-3.399 0-6.612-1.859-7.028-4.957-.028-.446.23-.677.646-.677h1.821c.388 0 .574.202.689.576.344 1.139 1.692 2.234 3.872 2.234 2.697 0 4.246-1.47 4.246-3.963V32.31c-1.084 1.538-2.79 2.501-5.092 2.501-3.901 0-7.128-3.3-7.128-7.434 0-4.135 3.227-7.435 7.128-7.435 2.301 0 4.008.963 5.092 2.501v-1.478c0-.418.23-.648.645-.648h1.75zM33.562 31.9c2.61 0 4.56-1.931 4.56-4.525 0-2.593-1.95-4.524-4.56-4.524-2.61 0-4.561 1.93-4.561 4.524 0 2.594 1.95 4.525 4.56 4.525z"/>
        </g>
    </g>
</svg>
